<svg width="100" height="100" viewBox="0 0 100 100" fill="none" xmlns="http://www.w3.org/2000/svg">
<g clip-path="url(#clip0_72_25)">
<path d="M33.338 3.003H62.928L32.212 94.07C31.8963 95.0055 31.2953 95.8184 30.4934 96.3944C29.6915 96.9705 28.7293 97.2805 27.742 97.281H4.70995C3.58042 97.2821 2.48816 96.877 1.63261 96.1395C0.777069 95.402 0.215324 94.3814 0.0499508 93.264C-0.061047 92.5242 0.0061484 91.7686 0.245951 91.06L28.8659 6.21C29.1818 5.27454 29.7831 4.46169 30.5851 3.88585C31.3872 3.31002 32.3496 3.0002 33.337 3L33.338 3.003Z" fill="url(#paint0_linear_72_25)"/>
<path d="M87.887 97.2829H61.317C60.1161 97.2843 58.9595 96.8289 58.082 96.0089L27.929 67.8489C27.6107 67.5508 27.3891 67.1641 27.2928 66.7388C27.1965 66.3135 27.23 65.869 27.389 65.4629C27.5487 65.0567 27.8272 64.7081 28.1881 64.4626C28.549 64.2172 28.9755 64.0862 29.412 64.0869H76.335L87.885 97.2839L87.887 97.2829Z" fill="#0078D4"/>
<path d="M63.035 3.00299L42.321 64.093L76.166 64.085L87.776 97.283H61.304C60.7548 97.2766 60.2105 97.1779 59.694 96.991C59.1776 96.803 58.6973 96.5276 58.274 96.177L37.92 77.181L32.222 93.985C31.925 94.828 31.4099 95.5772 30.7293 96.1565C30.0486 96.7358 29.2267 97.1245 28.347 97.283H4.72504C3.96927 97.2844 3.22427 97.1038 2.55302 96.7565C1.88177 96.4092 1.30399 95.9054 0.868514 95.2877C0.433043 94.67 0.15268 93.9566 0.0511228 93.2076C-0.0504343 92.4587 0.0297995 91.6964 0.285043 90.985L28.858 6.27499C29.083 5.56387 29.4744 4.91666 29.9996 4.38708C30.5248 3.85751 31.1688 3.46083 31.878 3.22999C32.349 3.07699 32.843 2.99999 33.339 3.00199H63.036L63.035 3.00299Z" fill="url(#paint1_linear_72_25)"/>
<path d="M99.753 91.0599C99.9912 91.7692 100.058 92.5249 99.9473 93.265C99.8367 94.005 99.5522 94.7082 99.117 95.3169C98.6812 95.9249 98.1069 96.4203 97.4415 96.7622C96.7762 97.1041 96.039 97.2826 95.291 97.2829H62.31C63.0582 97.2821 63.7955 97.1034 64.4611 96.7616C65.1267 96.4197 65.7014 95.9246 66.138 95.3169C66.5741 94.7089 66.8593 94.0059 66.9703 93.2659C67.0812 92.5259 67.0146 91.7701 66.776 91.0609L38.156 6.20893C37.8405 5.2751 37.2404 4.46361 36.4398 3.88855C35.6393 3.31349 34.6787 3.00377 33.693 3.00293H66.672C67.6577 3.00309 68.6187 3.31187 69.42 3.88593C70.2201 4.46276 70.8203 5.27481 71.137 6.20893L99.757 91.0609L99.753 91.0599Z" fill="url(#paint2_linear_72_25)"/>
</g>
<defs>
<linearGradient id="paint0_linear_72_25" x1="44.1379" y1="9.99" x2="13.386" y2="100.834" gradientUnits="userSpaceOnUse">
<stop stop-color="#114A8B"/>
<stop offset="1" stop-color="#0669BC"/>
</linearGradient>
<linearGradient id="paint1_linear_72_25" x1="53.726" y1="52.318" x2="46.613" y2="54.731" gradientUnits="userSpaceOnUse">
<stop stop-opacity="0.3"/>
<stop offset="0.1" stop-opacity="0.2"/>
<stop offset="0.3" stop-opacity="0.1"/>
<stop offset="0.6" stop-opacity="0.1"/>
<stop offset="1" stop-opacity="0"/>
</linearGradient>
<linearGradient id="paint2_linear_72_25" x1="49.8" y1="7.33993" x2="83.553" y2="97.2589" gradientUnits="userSpaceOnUse">
<stop stop-color="#3CCBF4"/>
<stop offset="1" stop-color="#2892DF"/>
</linearGradient>
<clipPath id="clip0_72_25">
<rect width="100" height="100" fill="white"/>
</clipPath>
</defs>
</svg>
