<svg width="100" height="100" viewBox="0 0 100 100" fill="none" xmlns="http://www.w3.org/2000/svg">
<path d="M25.5417 44.4583C27.2917 45.4583 27.9167 47.6666 26.9167 49.4166L15.1667 69.9166C14.1667 71.6666 11.9167 72.2916 10.1667 71.2916C9.74952 71.0576 9.38279 70.7434 9.08763 70.367C8.79247 69.9907 8.57471 69.5596 8.44689 69.0987C8.31908 68.6378 8.28374 68.1562 8.34291 67.6815C8.40209 67.2069 8.5546 66.7487 8.79167 66.3333L20.5417 45.8333C21.5417 44.0833 23.7917 43.4583 25.5417 44.4583ZM50.875 28.75C52.625 29.75 53.25 31.9583 52.25 33.7083L40.5 54.2083C39.5 55.9583 37.25 56.5833 35.5 55.5833C35.0829 55.3493 34.7161 55.0351 34.421 54.6587C34.1258 54.2823 33.908 53.8513 33.7802 53.3904C33.6524 52.9295 33.6171 52.4478 33.6762 51.9732C33.7354 51.4986 33.8879 51.0404 34.125 50.625L45.875 30.125C46.875 28.375 49.125 27.75 50.875 28.75ZM89.8333 28.75C91.5833 29.75 92.2083 31.9583 91.2083 33.7083L79.4583 54.2083C78.4583 55.9583 76.2083 56.5833 74.4583 55.5833C74.0412 55.3493 73.6745 55.0351 73.3793 54.6587C73.0841 54.2823 72.8664 53.8513 72.7386 53.3904C72.6107 52.9295 72.5754 52.4478 72.6346 51.9732C72.6938 51.4986 72.8463 51.0404 73.0833 50.625L84.8334 30.125C85.8334 28.375 88.0833 27.75 89.8333 28.75ZM64.5 44.4583C66.25 45.4583 66.875 47.6666 65.875 49.4166L54.125 69.9166C53.125 71.6666 50.875 72.2916 49.125 71.2916C48.7079 71.0576 48.3411 70.7434 48.046 70.367C47.7508 69.9907 47.533 69.5596 47.4052 69.0987C47.2774 68.6378 47.2421 68.1562 47.3012 67.6815C47.3604 67.2069 47.5129 66.7487 47.75 66.3333L59.5 45.8333C60.5 44.0833 62.75 43.4583 64.5 44.4583Z" fill="black"/>
</svg>
