<svg width="100" height="100" viewBox="0 0 100 100" fill="none" xmlns="http://www.w3.org/2000/svg">
<g clip-path="url(#clip0_72_21)">
<path d="M49.64 0C24.254 0 25.839 11.009 25.839 11.009L25.867 22.415H50.092V25.839H16.245C16.245 25.839 0 23.997 0 49.61C0 75.225 14.179 74.317 14.179 74.317H22.641V62.432C22.641 62.432 22.184 48.252 36.593 48.252H60.62C60.62 48.252 74.12 48.471 74.12 35.206V13.273C74.12 13.273 76.17 0 49.64 0ZM36.282 7.67C36.8545 7.66947 37.4214 7.78184 37.9504 8.00066C38.4793 8.21949 38.96 8.54047 39.3647 8.94526C39.7695 9.35004 40.0905 9.83067 40.3093 10.3596C40.5282 10.8886 40.6405 11.4556 40.64 12.028C40.6409 12.7452 40.4646 13.4514 40.127 14.0841C39.7893 14.7168 39.3007 15.2564 38.7044 15.6549C38.1082 16.0534 37.4228 16.2985 36.709 16.3685C35.9953 16.4384 35.2753 16.3311 34.613 16.056C33.8158 15.7269 33.1345 15.1682 32.6555 14.451C32.1765 13.7338 31.9216 12.8904 31.923 12.028C31.9226 11.4555 32.0351 10.8885 32.254 10.3596C32.473 9.83059 32.794 9.34996 33.1989 8.9452C33.6038 8.54043 34.0845 8.21945 34.6135 8.00064C35.1425 7.78183 35.7095 7.66947 36.282 7.67Z" fill="url(#paint0_linear_72_21)"/>
<path d="M50.36 99.4799C75.747 99.4799 74.162 88.4709 74.162 88.4709L74.134 77.0659H49.908V73.6399H83.755C83.755 73.6399 100 75.4849 100 49.8689C100 24.2539 85.821 25.1629 85.821 25.1629H77.36V37.0489C77.36 37.0489 77.817 51.2279 63.408 51.2279H39.38C39.38 51.2279 25.88 51.0099 25.88 64.2749V86.2079C25.88 86.2079 23.83 99.4799 50.36 99.4799ZM63.719 91.8099C63.0019 91.811 62.2956 91.6349 61.6629 91.2974C61.0301 90.9598 60.4906 90.4713 60.092 89.8751C59.6935 89.2789 59.4484 88.5935 59.3784 87.8798C59.3085 87.1661 59.4158 86.4462 59.691 85.7839C60.0201 84.9868 60.5787 84.3054 61.296 83.8264C62.0132 83.3475 62.8566 83.0925 63.719 83.0939C64.4362 83.093 65.1425 83.2692 65.7752 83.6068C66.4079 83.9445 66.9474 84.4332 67.3458 85.0295C67.7443 85.6258 67.9893 86.3112 68.0591 87.025C68.1289 87.7388 68.0213 88.4587 67.746 89.1209C67.4164 89.9176 66.8578 90.5984 66.1409 91.0773C65.424 91.5562 64.5811 91.8105 63.719 91.8099Z" fill="url(#paint1_linear_72_21)"/>
</g>
<defs>
<linearGradient id="paint0_linear_72_21" x1="9.61" y1="8.948" x2="59.167" y2="58.01" gradientUnits="userSpaceOnUse">
<stop stop-color="#387EB8"/>
<stop offset="1" stop-color="#366994"/>
</linearGradient>
<linearGradient id="paint1_linear_72_21" x1="40.028" y1="40.4529" x2="93.247" y2="90.7619" gradientUnits="userSpaceOnUse">
<stop stop-color="#FFE052"/>
<stop offset="1" stop-color="#FFC331"/>
</linearGradient>
<clipPath id="clip0_72_21">
<rect width="100" height="100" fill="white"/>
</clipPath>
</defs>
</svg>
